HIERARCHY
ROOT Hips
{
	OFFSET 0.000000 0.000000 0.000000
	CHANNELS 6 Xposition Yposition Zposition Zrotation Yrotation Xrotation 
	JOINT LeftUpLeg_virtual
	{
		OFFSET 0.000000 0.000000 0.000000
		CHANNELS 3 Zrotation Yrotation Xrotation
		JOINT LeftUpLeg
		{
			OFFSET 8.479694 -4.795517 -0.379053
			CHANNELS 3 Zrotation Yrotation Xrotation
			JOINT LeftLeg
			{
				OFFSET 0.485052 -32.551468 0.112863
				CHANNELS 3 Zrotation Yrotation Xrotation
				JOINT LeftFoot
				{
					OFFSET 0.438033 -32.635670 -3.012641
					CHANNELS 3 Zrotation Yrotation Xrotation
					JOINT LeftToeBase
					{
						OFFSET 0.970169 -13.225353 11.864223
						CHANNELS 3 Zrotation Yrotation Xrotation
						End Site
						{
							OFFSET 0.000000 0.000000 0.000000
						}
					}
				}
			}
		}
	}
	JOINT RightUpLeg_virtual
	{
		OFFSET 0.000000 0.000000 0.000000
		CHANNELS 3 Zrotation Yrotation Xrotation
		JOINT RightUpLeg
		{
			OFFSET -8.479694 -4.795517 -0.379053
			CHANNELS 3 Zrotation Yrotation Xrotation
			JOINT RightLeg
			{
				OFFSET -0.484100 -32.551483 0.112903
				CHANNELS 3 Zrotation Yrotation Xrotation
				JOINT RightFoot
				{
					OFFSET -0.438985 -32.635651 -3.012681
					CHANNELS 3 Zrotation Yrotation Xrotation
					JOINT RightToeBase
					{
						OFFSET -0.970169 -13.225354 11.864223
						CHANNELS 3 Zrotation Yrotation Xrotation
						End Site
						{
							OFFSET 0.000000 0.000000 0.000000
						}
					}
				}
			}
		}
	}
	JOINT Spine_virtual
	{
		OFFSET 0.000000 0.000000 0.000000
		CHANNELS 3 Zrotation Yrotation Xrotation
		JOINT Spine
		{
			OFFSET 0.000000 7.722015 1.166203
			CHANNELS 3 Zrotation Yrotation Xrotation
			JOINT Spine1
			{
				OFFSET 0.000000 12.024086 0.248766
				CHANNELS 3 Zrotation Yrotation Xrotation
				JOINT Spine2
				{
					OFFSET -0.000000 11.503036 -0.491240
					CHANNELS 3 Zrotation Yrotation Xrotation
					JOINT Neck_virtual
					{
						OFFSET 0.000000 0.000000 0.000000
						CHANNELS 3 Zrotation Yrotation Xrotation
						JOINT Neck
						{
							OFFSET 0.000000 18.430687 -3.123054
							CHANNELS 3 Zrotation Yrotation Xrotation
							JOINT Head
							{
								OFFSET -0.000000 9.051071 1.034021
								CHANNELS 3 Zrotation Yrotation Xrotation
								End Site
								{
									OFFSET 0.000000 0.000000 0.000000
								}
							}
						}
					}
					JOINT LeftShoulder_virtual
					{
						OFFSET 0.000000 0.000000 0.000000
						CHANNELS 3 Zrotation Yrotation Xrotation
						JOINT LeftShoulder
						{
							OFFSET 6.197824 13.665230 -4.064723
							CHANNELS 3 Zrotation Yrotation Xrotation
							JOINT LeftArm
							{
								OFFSET 7.778132 -0.187073 -1.709282
								CHANNELS 3 Zrotation Yrotation Xrotation
								JOINT LeftForeArm
								{
									OFFSET 21.954697 0.000000 -2.041093
									CHANNELS 3 Zrotation Yrotation Xrotation
									JOINT LeftHand
									{
										OFFSET 22.992908 0.000000 -0.870901
										CHANNELS 3 Zrotation Yrotation Xrotation
										End Site
										{
											OFFSET 0.000000 0.000000 0.000000
										}
									}
								}
							}
						}
					}
					JOINT RightShoulder_virtual
					{
						OFFSET 0.000000 0.000000 0.000000
						CHANNELS 3 Zrotation Yrotation Xrotation
						JOINT RightShoulder
						{
							OFFSET -6.197824 13.665230 -4.064723
							CHANNELS 3 Zrotation Yrotation Xrotation
							JOINT RightArm
							{
								OFFSET -7.778132 -0.187073 -1.709282
								CHANNELS 3 Zrotation Yrotation Xrotation
								JOINT RightForeArm
								{
									OFFSET -21.954697 0.000000 -2.041093
									CHANNELS 3 Zrotation Yrotation Xrotation
									JOINT RightHand
									{
										OFFSET -22.992908 0.000000 -0.870901
										CHANNELS 3 Zrotation Yrotation Xrotation
										End Site
										{
											OFFSET 0.000000 0.000000 0.000000
										}
									}
								}
							}
						}
					}
				}
			}
		}
	}
}
MOTION
Frames: 11
Frame Time: 0.033333
-6.270323 81.001381 25.729248 179.905871 2.232701 -179.978176 -4.445269 -1.538450 11.828429 -1.589489 0.542920 -23.260406 8.498228 3.620890 29.339675 1.535315 -7.396949 -13.940104 0.000000 0.000000 0.000000 -1.278849 -1.517025 12.022770 -1.798918 -3.856852 -21.075423 -0.956238 4.084409 28.140835 7.609851 3.729688 -11.496331 0.000000 0.000000 0.000000 3.006424 1.212317 0.616440 -5.224350 0.924667 -0.470230 0.510572 -2.445388 4.096412 -0.015489 0.004048 0.011462 0.528457 -1.492924 5.652997 1.135656 2.467975 -1.745996 0.000000 0.000000 0.000000 1.941779 -0.802383 2.267979 -2.089278 7.321941 -6.264618 -6.440564 -7.777259 -48.261994 2.694742 -32.896991 -0.125969 0.000000 0.000000 0.000000 -2.051551 0.397736 1.707892 18.840285 -11.552889 -12.681669 3.719958 0.060369 -60.835935 -0.173049 25.235485 3.096648 0.000000 0.000000 0.000000 
-6.227599 80.978989 25.763102 179.903508 2.197337 -179.964474 -4.402293 -1.613992 11.902879 -1.493854 0.317041 -23.266314 8.614555 3.428129 29.545974 1.574407 -7.397687 -14.318020 0.000000 0.000000 0.000000 -1.288059 -1.506358 12.037067 -1.788988 -3.850822 -21.115673 -0.973921 4.051795 28.223916 7.615561 3.686646 -11.399405 0.000000 0.000000 0.000000 2.981316 1.187015 0.607621 -5.220670 0.926105 -0.519018 0.505997 -2.468829 4.110949 -0.012455 -0.015848 0.034717 0.527271 -1.486982 5.635600 1.133963 2.480686 -1.748610 0.000000 0.000000 0.000000 1.948937 -0.758524 2.228271 -2.103712 7.428381 -6.188663 -6.288846 -7.729836 -48.218571 2.736965 -32.770182 -0.191212 0.000000 0.000000 0.000000 -2.069489 0.493786 1.685325 18.778152 -11.528341 -12.705051 3.712944 -0.076658 -60.769081 -0.111556 25.298657 3.200624 0.000000 0.000000 0.000000 
-6.203678 80.961418 25.806051 179.917319 2.108045 -179.962821 -4.392913 -1.611686 11.964882 -1.468278 0.278240 -23.406413 8.625275 3.414678 29.609331 1.550384 -7.426034 -14.337088 0.000000 0.000000 0.000000 -1.308071 -1.510249 12.084017 -1.773851 -3.917132 -21.205125 -0.985753 3.960247 28.231610 7.700580 3.672062 -11.439060 0.000000 0.000000 0.000000 2.954308 1.189474 0.605760 -5.211426 0.937628 -0.599354 0.508420 -2.463435 4.106791 -0.015441 -0.013030 0.030752 0.530847 -1.493691 5.620237 1.122595 2.453945 -1.776016 0.000000 0.000000 0.000000 1.948498 -0.747222 2.250190 -2.129338 7.457452 -6.183825 -6.233888 -7.710557 -48.129655 2.719345 -32.739002 -0.268357 0.000000 0.000000 0.000000 -2.057680 0.496885 1.689461 18.790018 -11.610437 -12.673016 3.686885 -0.150333 -60.759150 -0.096862 25.403458 3.232863 0.000000 0.000000 0.000000 
-6.192974 80.953697 25.855347 -179.976318 2.112245 -179.980361 -4.316762 -1.521914 12.039837 -1.391196 0.282430 -23.515920 8.623374 3.448450 29.610093 1.489087 -7.492606 -14.339238 0.000000 0.000000 0.000000 -1.223806 -1.434672 12.137546 -1.736910 -3.907349 -21.270326 -1.018552 3.771023 28.190231 7.856762 3.681449 -11.435002 0.000000 0.000000 0.000000 2.969940 1.245053 0.636384 -5.136328 0.972803 -0.705939 0.561428 -2.420531 4.081076 0.006144 0.027420 0.025583 0.490004 -1.568496 5.616590 1.060210 2.426490 -1.768757 0.000000 0.000000 0.000000 1.929991 -0.809591 2.256353 -2.220515 7.400088 -6.126449 -6.295052 -7.643538 -47.986396 2.743631 -32.809572 -0.411592 0.000000 0.000000 0.000000 -2.097081 0.479449 1.680259 18.900124 -11.757818 -12.463359 3.551234 -0.223860 -60.827998 -0.141924 25.514452 3.192360 0.000000 0.000000 0.000000 
-6.191690 80.951538 25.885670 -179.977342 1.988009 -179.904574 -4.316887 -1.556624 12.024504 -1.398144 0.290617 -23.618401 8.612226 3.523457 29.571393 1.411060 -7.563676 -14.334972 0.000000 0.000000 0.000000 -1.223651 -1.433489 12.171994 -1.682462 -4.118338 -21.332105 -0.965673 3.938325 28.170514 7.909526 3.504209 -11.444738 0.000000 0.000000 0.000000 2.901927 1.257837 0.599058 -5.095876 0.929543 -0.835250 0.578968 -2.431425 4.077626 0.022532 0.020531 0.035095 0.482474 -1.596844 5.606682 0.973118 2.395517 -1.855566 0.000000 0.000000 0.000000 1.935408 -0.797620 2.289364 -2.331460 7.360041 -6.107682 -6.502917 -7.627183 -47.854078 2.737658 -33.063214 -0.533124 0.000000 0.000000 0.000000 -2.069156 0.515007 1.690316 18.904787 -11.858252 -12.476593 3.622863 -0.271353 -60.962321 -0.040808 25.623378 3.307376 0.000000 0.000000 0.000000 
-6.185725 80.962196 25.911699 179.931567 1.943465 -179.875040 -4.393434 -1.528950 12.010309 -1.362621 0.273245 -23.626473 8.551701 3.510438 29.460860 1.375532 -7.544506 -14.282842 0.000000 0.000000 0.000000 -1.236708 -1.377526 12.179885 -1.668571 -4.315584 -21.330080 -0.972028 3.915218 28.148712 8.076124 3.478346 -11.404534 0.000000 0.000000 0.000000 2.783287 1.292604 0.632990 -5.056253 0.904811 -1.001693 0.564059 -2.467279 4.060454 -0.005820 0.137474 0.020850 0.541271 -1.480712 5.642218 0.900624 2.331480 -1.883131 0.000000 0.000000 0.000000 2.008272 -0.740945 2.395361 -2.416749 7.264086 -6.005410 -6.844468 -7.689298 -47.789150 2.892030 -33.607181 -0.810296 0.000000 0.000000 0.000000 -1.964101 0.499019 1.745794 18.975425 -11.970681 -12.364637 3.635565 -0.309114 -61.146797 -0.006446 25.680878 3.359692 0.000000 0.000000 0.000000 
-6.177052 80.978951 25.936556 -179.986536 1.806742 -179.862172 -4.317856 -1.578854 11.997140 -1.265086 0.103271 -23.577277 8.512087 3.670820 29.367361 1.339661 -7.529321 -14.233657 0.000000 0.000000 0.000000 -1.206480 -1.418668 12.164410 -1.626305 -4.326617 -21.320179 -1.005545 3.822759 28.002066 8.193875 3.416308 -11.339374 0.000000 0.000000 0.000000 2.736425 1.288894 0.651979 -4.934520 0.927963 -1.131760 0.608058 -2.440259 4.066297 0.026502 -0.007176 0.032173 0.485025 -1.503160 5.649136 0.781502 2.313644 -1.895325 0.000000 0.000000 0.000000 1.990240 -0.705868 2.407126 -2.427859 7.130723 -6.122874 -7.354329 -7.602234 -47.682343 2.945490 -34.480605 -0.800157 0.000000 0.000000 0.000000 -2.014849 0.565350 1.779511 19.007933 -12.030176 -12.211211 3.686519 -0.349703 -61.442715 0.093331 25.633826 3.462988 0.000000 0.000000 0.000000 
-6.163036 80.999825 25.967484 179.999349 1.763830 -179.961592 -4.339659 -1.610448 12.034343 -1.206918 -0.000424 -23.459405 8.431208 3.738595 29.225471 1.337728 -7.464698 -14.180559 0.000000 0.000000 0.000000 -1.225632 -1.503405 12.180171 -1.634155 -4.329549 -21.206897 -1.009437 3.750484 27.869363 8.329653 3.415638 -11.286460 0.000000 0.000000 0.000000 2.598362 1.228726 0.690033 -4.876237 0.988631 -1.198412 0.603923 -2.393663 4.082568 0.035329 0.000945 0.011003 0.477358 -1.434081 5.629240 0.728360 2.260576 -1.882439 0.000000 0.000000 0.000000 1.981562 -0.628511 2.477237 -2.360922 6.984047 -6.106850 -8.036569 -7.619874 -47.427696 3.310596 -35.733490 -1.007059 0.000000 0.000000 0.000000 -2.010206 0.600182 1.754083 19.048662 -12.051567 -11.988280 3.846606 -0.428626 -61.729371 0.169230 25.420021 3.520364 0.000000 0.000000 0.000000 
-6.147910 81.018120 26.006466 -179.979282 1.611865 -179.946825 -4.369797 -1.791600 12.014670 -1.111718 -0.071344 -23.413301 8.386312 3.776535 29.163012 1.384421 -7.373693 -14.142408 0.000000 0.000000 0.000000 -1.250008 -1.767585 12.143378 -1.581326 -4.442424 -21.098056 -0.997910 3.761962 27.694045 8.427549 3.442773 -11.160937 0.000000 0.000000 0.000000 2.457578 1.065997 0.585368 -4.808313 1.044399 -1.310578 0.601656 -2.349601 4.098885 0.014279 -0.010892 0.022109 0.454853 -1.386659 5.591261 0.686741 2.250685 -1.780057 0.000000 0.000000 0.000000 2.001498 -0.596103 2.428546 -2.194159 6.706926 -6.068923 -8.946018 -7.309357 -46.981514 3.816931 -37.557913 -1.143908 0.000000 0.000000 0.000000 -2.015860 0.652333 1.732262 19.154654 -12.098941 -11.821817 3.929460 -0.504922 -61.840540 0.279498 24.987392 3.649535 0.000000 0.000000 0.000000 
-6.143823 81.029877 26.022497 179.981413 1.544359 -179.920829 -4.450577 -1.894359 11.978850 -1.008996 -0.136287 -23.390198 8.309707 3.814081 29.186665 1.455078 -7.293239 -14.118221 0.000000 0.000000 0.000000 -1.329000 -1.890394 12.045936 -1.542270 -4.529516 -20.986325 -1.009188 3.776640 27.527003 8.520867 3.527380 -11.107571 0.000000 0.000000 0.000000 2.272282 0.944641 0.504399 -4.791338 1.163979 -1.429504 0.552486 -2.240567 4.090021 0.068802 0.020954 -0.031446 0.443605 -1.370684 5.645473 0.693169 2.252790 -1.628786 0.000000 0.000000 0.000000 1.998516 -0.512578 2.535475 -1.920529 6.502242 -6.138107 -10.124516 -7.067550 -46.302310 4.496989 -40.276929 -1.301313 0.000000 0.000000 0.000000 -2.033182 0.741638 1.800257 19.155325 -12.054369 -11.492004 4.182724 -0.654953 -61.983550 0.409594 24.502508 3.719543 0.000000 0.000000 0.000000 
-6.135422 81.033478 26.015779 -179.999582 1.358903 -179.946183 -4.473482 -2.010639 11.959173 -0.861358 -0.283926 -23.367023 8.224250 3.872700 29.297762 1.536781 -7.266981 -14.127243 0.000000 0.000000 0.000000 -1.413668 -2.089752 11.972565 -1.446796 -4.583652 -20.800815 -0.999685 3.766798 27.398286 8.514709 3.593517 -11.068343 0.000000 0.000000 0.000000 2.099015 0.786323 0.427620 -4.770435 1.250596 -1.522160 0.614750 -2.161444 4.129550 0.032926 0.006349 0.009213 0.462180 -1.131774 5.566123 0.832199 2.174305 -1.377442 0.000000 0.000000 0.000000 1.975545 -0.338730 2.507252 -1.547707 6.283677 -5.924853 -11.585537 -6.769644 -45.162679 5.699974 -44.411328 -1.614914 0.000000 0.000000 0.000000 -2.029545 0.852385 1.745881 19.307958 -11.969736 -11.182095 4.350432 -0.780654 -62.014764 0.560797 23.998570 3.835877 0.000000 0.000000 0.000000 
